# xmcd
#
# Track frame offsets: 
#        150
#        16910
#        38166
#        58856
#        79002
#        94490
#
# Disc length: 1535 seconds
#
# Revision: 4
# Processed by: cddbd v1.5.2PL0 Copyright (c) Steve Scherf et al.
# Submitted via: ExactAudioCopy v1.3
#
DISCID=4505fd06
DTITLE=Robert Cray - 4 Nights Of 40 Years Live [CD2]
DYEAR=2015
DGENRE=Blues
TTITLE0=Guess I Showed Her - 87
TTITLE1=Right Next Door - 87
TTITLE2=Smoking Gun - 87
TTITLE3=Still Around - 87
TTITLE4=Too Many Cooks - 82
TTITLE5=T-Bone Shuffle - 82
EXTD=YEAR: 2015
EXTT0=
EXTT1=
EXTT2=
EXTT3=
EXTT4=
EXTT5=
PLAYORDER=
